<svg width="155" height="298" viewBox="0 0 97 186" fill="none" xmlns="http://www.w3.org/2000/svg" preserveAspectRatio="xMidYMid slice">
<path d="M89.0951 127.415C87.6051 138.395 82.0251 156.985 70.2251 153.785L70.7451 185.075L20.7251 185.535L21.9451 154.775C10.0851 151.895 0.365111 99.1047 9.04511 87.8247C13.2451 83.5547 43.7651 91.2347 39.7951 77.9247C31.4851 50.0747 27.7051 32.2047 26.1751 19.6347C20.0851 -5.10531 41.4151 -2.44531 43.4151 11.5847C49.8051 24.0447 54.5551 66.9447 58.4251 67.5947C64.9251 71.7347 75.1651 25.0947 76.4851 16.1347C80.7551 -3.39531 98.9851 0.634691 95.7151 17.5347C97.4851 24.7547 78.6751 80.4747 80.0551 100.815C88.4751 108.235 88.4951 115.145 89.1051 127.425L89.0951 127.415Z" fill="none" stroke="black" stroke-width="0.5" stroke-dasharray="6 5"/>
<path d="M44.9651 150.015C42.1751 130.115 49.6551 118.535 62.9851 109.945Z" fill="none"/>
<path d="M44.9651 150.015C44.6751 147.935 44.4951 145.945 44.4251 144.035" stroke="black" stroke-width="0.5" stroke-dasharray="6 5"/>
<path d="M45.3251 133.195C46.7551 126.775 49.7951 121.545 54.0851 117.105" stroke="black" stroke-width="0.5" stroke-dasharray="6 5"/>
<path d="M58.1151 113.445C59.6351 112.225 61.2651 111.055 62.9851 109.945" stroke="black" stroke-width="0.5" stroke-dasharray="6 5"/>
<path d="M19.8851 78.6747C18.3951 68.5547 -3.00487 67.6947 1.66513 84.6547C3.64513 90.8347 4.66513 95.0947 8.35513 104.685C10.3951 109.155 13.3251 112.055 15.8051 115.215C19.1251 119.825 27.4451 117.515 27.4951 113.205L25.3451 101.805L19.8851 78.6847V78.6747Z" fill="white"/>
<path d="M19.8851 78.6747C18.3951 68.5547 -3.00487 67.6947 1.66513 84.6547C3.64513 90.8347 4.66513 95.0947 8.35513 104.685C10.3951 109.155 13.3251 112.055 15.8051 115.215C19.1251 119.825 27.4451 117.515 27.4951 113.205L25.3451 101.805L19.8851 78.6847V78.6747Z" stroke="black" stroke-width="0.5" stroke-dasharray="6 5"/>
<path d="M37.1451 66.8947C36.4851 58.5347 17.4251 56.2847 17.2151 71.5147L22.5051 93.9447L27.5352 115.285C29.8252 121.205 40.5651 119.635 41.5151 114.625L39.6051 91.8347L37.1451 66.9047V66.8947Z" fill="white"/>
<path d="M37.1451 66.8947C36.4851 58.5347 17.4251 56.2847 17.2151 71.5147L22.5051 93.9447L27.5352 115.285C29.8252 121.205 40.5651 119.635 41.5151 114.625L39.6051 91.8347L37.1451 66.9047V66.8947Z" stroke="black" stroke-width="0.5" stroke-dasharray="6 5"/>
<path d="M87.6351 111.805C84.5051 101.805 74.6151 99.0047 59.3051 84.5247C52.2751 77.8747 53.8451 62.0147 46.0751 57.4047C25.4751 60.4947 35.6351 85.0047 41.4851 94.8747L53.0251 116.425" fill="white"/>
<path d="M87.6351 111.805C87.0051 109.795 86.0951 108.065 84.9351 106.485" stroke="black" stroke-width="0.5" stroke-dasharray="6 5"/>
<path d="M77.1551 99.1547C72.4951 95.5547 66.5051 91.3247 59.3151 84.5247C52.2851 77.8747 53.8551 62.0147 46.0851 57.4047C25.4851 60.4947 35.6451 85.0047 41.4951 94.8747L47.6651 106.405" stroke="black" stroke-width="0.5" stroke-dasharray="6 5"/>
<path d="M50.1951 111.135L53.0251 116.425" stroke="black" stroke-width="0.5" stroke-dasharray="6 5"/>
</svg>
